<svg width="1920" height="1080" fill="none" xmlns="http://www.w3.org/2000/svg"><mask id="Mask Group__a" style="mask-type:alpha" maskUnits="userSpaceOnUse" x="0" y="0" width="1920" height="1080"><path fill="#fff" d="M0 0h1920v1080H0z"/></mask><g mask="url(#Mask Group__a)" fill="#09F"><path d="M1715.5 657.135C1209.5 488.735 1300 9.109 858 199.609c88-84 902.1-533.983 916.5-537.583 14.4-3.6 353 369.5 520.5 556.5-51.17 214.667-73.5 607.009-579.5 438.609Z"/><ellipse cx="990" cy="760.5" rx="302" ry="282.5"/><path d="M620.5 521.5c-158.421 636.94-1001 65-1019 49-41.334-177.333-125.8-534.7-133-545.5-7.2-10.8 704.333-308.5 1061-456l878 523.5c-62 51-665.5-59.5-787 429Z"/></g></svg>