<svg width="68" height="20" fill="none" xmlns="http://www.w3.org/2000/svg"><path d="M21.057 15h-1v1h1v-1Zm0-8.727v-1h-1v1h1Zm1.057 0h1v-1h-1v1Zm0 4.33h-1v1h1v-1Zm.102 0v1h.444l.297-.33-.741-.67Zm3.92-4.33v-1h-.443l-.298.329.741.67Zm1.381 0 .732.681 1.565-1.681h-2.297v1Zm-3.665 3.937-.732-.681-.575.618.513.67.794-.607ZM27.517 15v1h2.024l-1.23-1.608-.794.608Zm-1.278 0-.801.599.3.401h.5v-1Zm-3.035-4.057.801-.599-.734-.981-.814.916.747.664Zm-1.09 1.228-.748-.665-.252.284v.38h1Zm0 2.829v1h1v-1h-1Zm-.057 0V6.273h-2V15h2Zm-1-7.727h1.057v-2h-1.057v2Zm.057-1v4.33h2v-4.33h-2Zm1 5.33h.102v-2h-.102v2Zm.843-.33 3.92-4.329-1.482-1.342-3.92 4.33 1.482 1.341Zm3.18-4h1.38v-2h-1.38v2Zm.648-1.682L23.12 9.53l1.464 1.363 3.665-3.938-1.464-1.363Zm-3.727 5.227 3.665 4.79 1.588-1.216-3.665-4.79-1.588 1.216ZM27.517 14h-1.278v2h1.278v-2Zm-.478.401-3.034-4.057-1.601 1.198 3.034 4.057 1.601-1.198Zm-4.582-4.122-1.09 1.227 1.494 1.329 1.091-1.228-1.495-1.328Zm-1.343 1.892V15h2v-2.83h-2Zm1 1.829h-1.057v2h1.057v-2Zm7.266.719-.526.85.006.004.52-.854Zm-1.052-1.176-.9.435.002.006.898-.441Zm0-3.537-.901-.434-.002.003.903.43Zm1.031-1.202.546.838.001-.001-.547-.837Zm2.561-.264.324-.946-.324.946Zm.908.554-.684.73.004.003.68-.733Zm.652 1.005.932-.361-.932.361Zm.243 1.97v1h1v-1h-1Zm-5.046 0h-1v1h1v-1Zm0-.87v-1h-1v1h1Zm4.023 0v1h1v-1h-1Zm-.222-.989-.894.447.003.007.891-.454Zm-.622-.686-.531.847.004.003.527-.85Zm-1.986.047.56.828h.003l-.563-.828Zm-.669.767-.896-.444.896.444Zm.022 2.85-.896.445.004.01.892-.454Zm.72.78-.504.864.006.004.498-.867Zm1.785.154.328.945.007-.002-.335-.943Zm.559-.34.694.72.006-.007-.7-.714Zm.362-.572.27-.963-.884-.248-.322.86.936.351Zm.971.273.955.296.305-.981-.99-.278-.27.963Zm-.515.87.715.698.004-.004-.72-.695Zm-.895.579.358.933.007-.002-.365-.931Zm-1.198-.796c-.48 0-.837-.104-1.112-.271l-1.04 1.708c.64.39 1.371.563 2.152.563v-2Zm-1.105-.268a1.805 1.805 0 0 1-.682-.767l-1.795.883c.326.663.802 1.2 1.424 1.585l1.053-1.7Zm-.679-.76c-.167-.347-.267-.78-.267-1.33h-2c0 .793.145 1.534.466 2.2l1.801-.87Zm-.267-1.33c0-.548.1-.987.27-1.341l-1.806-.862c-.319.668-.464 1.41-.464 2.203h2Zm.268-1.34c.175-.363.402-.618.676-.796l-1.092-1.676a3.89 3.89 0 0 0-1.386 1.606l1.802.867Zm.677-.797c.262-.171.584-.272 1.004-.272v-2c-.762 0-1.474.19-2.098.598l1.094 1.674Zm1.004-.272c.228 0 .455.038.687.117l.647-1.892a4.102 4.102 0 0 0-1.334-.225v2Zm.687.117c.19.065.37.172.547.337l1.368-1.459a3.502 3.502 0 0 0-1.268-.77l-.647 1.892Zm.55.341c.142.13.282.33.4.634l1.865-.723c-.206-.53-.5-1.003-.904-1.378l-1.36 1.467Zm.4.634c.105.269.176.652.176 1.181h2c0-.692-.091-1.338-.31-1.904l-1.866.723Zm.176 1.181v.426h2v-.426h-2Zm1-.574h-5.046v2h5.046v-2Zm-4.046 1v-.87h-2v.87h2Zm-1 .13H32.7v-2h-4.023v2Zm5.023-1c0-.505-.102-.994-.33-1.442l-1.783.908c.067.132.113.302.113.535h2Zm-.327-1.435a2.67 2.67 0 0 0-.99-1.088l-1.054 1.699a.67.67 0 0 1 .255.283l1.789-.894Zm-.985-1.086a2.74 2.74 0 0 0-1.478-.404v2c.205 0 .33.045.415.098l1.063-1.694Zm-1.478-.404c-.573 0-1.122.145-1.602.471l1.125 1.654c.105-.072.25-.125.477-.125v-2Zm-1.6.47a2.962 2.962 0 0 0-1.005 1.151l1.792.888a.963.963 0 0 1 .334-.383l-1.12-1.656Zm-1.005 1.151a3.253 3.253 0 0 0-.338 1.458h2c0-.21.044-.396.13-.57l-1.792-.888Zm-.338 1.458v.58h2v-.58h-2Zm0 .58c0 .605.104 1.185.36 1.701l1.792-.888c-.086-.172-.152-.43-.152-.813h-2Zm.364 1.71c.254.498.622.907 1.108 1.19l1.008-1.727a.847.847 0 0 1-.333-.37l-1.783.907Zm1.114 1.194c.48.275 1.013.397 1.567.397v-2c-.257 0-.437-.055-.571-.132l-.996 1.735Zm1.567.397c.357 0 .71-.05 1.044-.166l-.655-1.89a1.185 1.185 0 0 1-.389.056v2Zm1.051-.168c.343-.122.653-.309.917-.564l-1.387-1.44a.534.534 0 0 1-.2.119l.67 1.885Zm.924-.57c.271-.266.467-.585.598-.934l-1.873-.702a.554.554 0 0 1-.126.209l1.401 1.427Zm-.608-.322.971.273.54-1.926-.971-.273-.54 1.926Zm.286-.986a1.154 1.154 0 0 1-.28.47l1.439 1.39a3.15 3.15 0 0 0 .751-1.268l-1.91-.592Zm-.276.466a1.516 1.516 0 0 1-.544.348l.73 1.862a3.512 3.512 0 0 0 1.245-.812l-1.43-1.398Zm-.538.345a2.326 2.326 0 0 1-.839.138v2c.546 0 1.07-.084 1.556-.27l-.717-1.868Zm3.394 3.414.208-.978-.01-.002-.01-.002-.188.982Zm-.277-.077-.96-.277-.231.8.744.372.447-.895Zm.256-.886.248-.969-.94-.24-.27.932.962.277Zm.647.068-.09-.996.09.996Zm.499-.251-.707-.707-.007.006-.006.007.72.694Zm.405-.72.939.344-.94-.345Zm.187-.512.94.344.126-.345-.127-.344-.939.345Zm-2.42-6.58v-1h-1.434l.495 1.346.939-.345Zm1.09 0 .946-.327-.233-.672h-.712v1Zm1.808 5.216-.945.328.233.673h.712v-1Zm.068 0v1h.712l.233-.672-.945-.327Zm1.807-5.215v-1h-.712l-.233.672.945.328Zm1.09 0 .938.347.5-1.347h-1.438v1Zm-2.778 7.5-.938-.348.938.348Zm-.464.839-.769-.64-.004.005.773.635Zm-.644.499-.404-.915-.004.002.408.913Zm-.818-.838c-.117 0-.197-.01-.248-.021l-.416 1.956c.216.046.44.064.664.064v-2Zm-.268-.025a1.824 1.824 0 0 1-.09-.02h-.003a.538.538 0 0 1 .075.031l-.894 1.789c.187.093.402.138.536.164l.376-1.964Zm.496 1.182.255-.886-1.921-.554-.256.886 1.922.554Zm-.953-.194c.32.081.654.125.986.095l-.181-1.992a.982.982 0 0 1-.31-.04l-.495 1.937Zm.986.095c.454-.041.837-.25 1.129-.554l-1.441-1.387c-.004.004.007-.009.037-.023a.268.268 0 0 1 .094-.028l.181 1.992Zm1.115-.54c.298-.298.494-.696.637-1.083l-1.878-.69c-.047.13-.09.222-.126.285-.036.064-.054.08-.047.074l1.414 1.414Zm.637-1.083.187-.512-1.878-.688-.187.511 1.878.689Zm.187-1.201-2.42-6.58-1.878.69 2.42 6.58 1.878-.69Zm-3.36-5.234h1.092v-2h-1.091v2Zm.147-.673 1.807 5.216 1.89-.655-1.807-5.216-1.89.655Zm2.752 5.889h.068v-2h-.068v2Zm1.013-.673 1.806-5.216-1.89-.655-1.806 5.216 1.89.655Zm.862-4.543h1.09v-2h-1.09v2Zm.153-1.348-2.779 7.5 1.876.695 2.778-7.5-1.875-.695Zm-2.779 7.5a1.833 1.833 0 0 1-.295.547l1.537 1.28c.273-.328.479-.713.634-1.133l-1.876-.693Zm-.299.552a.743.743 0 0 1-.275.219l.808 1.83a2.74 2.74 0 0 0 1.012-.779l-1.545-1.27Zm-.279.22a.99.99 0 0 1-.41.075v2a2.98 2.98 0 0 0 1.226-.248l-.816-1.826Zm4.87-9.169h-1v1h1v-1Zm0-.937v-1h-1v1h1Zm6.546 0h1v-1h-1v1Zm0 .937v1h1v-1h-1Zm-2.744 0v-1h-1v1h1Zm0 7.79v1h1v-1h-1Zm-1.057 0h-1v1h1v-1Zm0-7.79h1v-1h-1v1Zm-1.744 0v-.937h-2v.937h2Zm-1 .063h6.545v-2h-6.545v2Zm5.545-1v.937h2v-.937h-2Zm1-.063h-2.744v2h2.744v-2Zm-3.744 1V15h2V7.21h-2Zm1 6.79h-1.057v2h1.057v-2Zm-.057 1V7.21h-2V15h2Zm-1-8.79h-2.744v2h2.744v-2Zm5.459 8.509-.526.85.006.004.52-.854Zm-1.053-1.176-.9.435.003.006.898-.441Zm0-3.537-.9-.434-.002.003.903.43Zm1.032-1.202.546.838.001-.001-.547-.837Zm2.56-.264.324-.946-.323.946Zm.909.554-.684.73.004.003.68-.733Zm.651 1.005.933-.361-.933.361Zm.243 1.97v1h1v-1h-1Zm-5.045 0h-1v1h1v-1Zm0-.87v-1h-1v1h1Zm4.023 0v1h1v-1h-1Zm-.222-.989-.894.447.003.007.891-.454Zm-.622-.686-.532.847.004.003.528-.85Zm-1.986.047.56.828h.002l-.562-.828Zm-.669.767-.896-.444.896.444Zm.021 2.85-.896.445.005.01.891-.454Zm.72.78-.503.864.006.004.498-.867Zm1.786.154.328.945.007-.002-.335-.943Zm.558-.34.694.72.007-.007-.7-.714Zm.362-.572.27-.963L51.84 12l-.323.86.936.351Zm.972.273.955.296.305-.981-.99-.278-.27.963Zm-.516.87.716.698.004-.004-.72-.695Zm-.894.579.358.933.007-.002-.365-.931Zm-1.198-.796c-.48 0-.837-.104-1.112-.271l-1.04 1.708c.64.39 1.371.563 2.152.563v-2Zm-1.106-.268a1.805 1.805 0 0 1-.681-.767l-1.795.883c.326.663.802 1.2 1.424 1.585l1.052-1.7Zm-.678-.76c-.167-.347-.267-.78-.267-1.33h-2c0 .793.145 1.534.466 2.2l1.8-.87Zm-.267-1.33c0-.548.1-.987.269-1.341l-1.805-.862c-.32.668-.464 1.41-.464 2.203h2Zm.268-1.34c.175-.363.401-.618.676-.796l-1.092-1.676a3.89 3.89 0 0 0-1.387 1.606l1.803.867Zm.677-.797c.262-.171.584-.272 1.004-.272v-2c-.762 0-1.474.19-2.099.598l1.095 1.674Zm1.004-.272c.227 0 .455.038.686.117l.647-1.892a4.103 4.103 0 0 0-1.333-.225v2Zm.686.117c.19.065.371.172.547.337l1.368-1.459a3.502 3.502 0 0 0-1.268-.77l-.647 1.892Zm.552.341c.14.13.281.33.4.634l1.864-.723c-.206-.53-.5-1.003-.905-1.378l-1.36 1.467Zm.4.634c.103.269.174.652.174 1.181h2c0-.692-.09-1.338-.31-1.904l-1.865.723Zm.174 1.181v.426h2v-.426h-2Zm1-.574h-5.045v2h5.045v-2Zm-4.045 1v-.87h-2v.87h2Zm-1 .13h4.023v-2h-4.023v2Zm5.023-1c0-.505-.102-.994-.331-1.442l-1.782.908c.067.132.113.302.113.535h2Zm-.328-1.435a2.67 2.67 0 0 0-.989-1.088l-1.055 1.699c.11.068.192.156.256.283l1.788-.894Zm-.984-1.086a2.74 2.74 0 0 0-1.478-.404v2c.205 0 .33.045.414.098l1.064-1.694Zm-1.478-.404c-.574 0-1.122.145-1.602.471l1.124 1.654c.106-.072.25-.125.478-.125v-2Zm-1.6.47a2.962 2.962 0 0 0-1.005 1.151l1.792.888a.963.963 0 0 1 .333-.383l-1.12-1.656ZM48.11 9.894a3.253 3.253 0 0 0-.338 1.458h2c0-.21.044-.396.13-.57l-1.792-.888Zm-.338 1.458v.58h2v-.58h-2Zm0 .58c0 .605.104 1.185.36 1.701l1.791-.888c-.085-.172-.151-.43-.151-.813h-2Zm.364 1.71a2.84 2.84 0 0 0 1.108 1.19l1.007-1.727a.847.847 0 0 1-.332-.37l-1.783.907Zm1.114 1.194a3.11 3.11 0 0 0 1.567.397v-2c-.258 0-.438-.055-.572-.132l-.995 1.735Zm1.567.397c.357 0 .709-.05 1.044-.166l-.655-1.89a1.185 1.185 0 0 1-.389.056v2Zm1.05-.168a2.53 2.53 0 0 0 .918-.564l-1.388-1.44a.535.535 0 0 1-.199.119l.67 1.885Zm.925-.57c.271-.266.467-.585.598-.934l-1.873-.702a.556.556 0 0 1-.126.209l1.4 1.427Zm-.609-.322.972.273.54-1.926-.971-.273-.54 1.926Zm.287-.986a1.154 1.154 0 0 1-.28.47l1.439 1.39c.349-.362.602-.788.751-1.268l-1.91-.592Zm-.276.466a1.516 1.516 0 0 1-.544.348l.73 1.862a3.512 3.512 0 0 0 1.245-.812l-1.43-1.398Zm-.538.345a2.326 2.326 0 0 1-.839.138v2c.546 0 1.07-.084 1.556-.27l-.717-1.868Zm4.475.704-.547.837.547-.837Zm-1.014-4.7-.9-.436-.002.002.902.433Zm1.031-1.198.546.838.001-.001-.547-.837Zm3.703.537.793-.61-.793.61Zm.44 1.074v1h1.148l-.158-1.138-.99.138Zm-1.007 0-.968.249.193.75h.775v-1Zm-.51-.793-.666.747.008.007.657-.754Zm-2.089-.042.568.823.001-.001-.569-.822Zm-.686.856-.913-.407-.002.003.915.404Zm-.004 2.612-.92.39.002.007.918-.397Zm.681.874-.578.816.004.002.575-.818Zm1.752.175-.392-.92.392.92Zm.541-.393.756.655-.756-.655Zm.315-.613v-1h-.771l-.196.747.967.253Zm1.006 0 .99.145.168-1.145H60.29v1Zm-.422 1.044-.81-.587v.002l.81.585Zm-.882.733.442.897.003-.001-.445-.896Zm-1.27-.732c-.45 0-.782-.104-1.038-.271l-1.094 1.674c.63.412 1.356.597 2.132.597v-2Zm-1.038-.271a1.833 1.833 0 0 1-.664-.786l-1.811.85a3.833 3.833 0 0 0 1.38 1.61l1.095-1.674Zm-.664-.786c-.167-.355-.264-.787-.264-1.318h-2c0 .777.143 1.507.453 2.168l1.81-.85Zm-.264-1.318c0-.541.1-.975.268-1.326l-1.803-.867c-.32.666-.465 1.405-.465 2.193h2Zm.267-1.324c.175-.361.402-.616.677-.795l-1.092-1.676a3.895 3.895 0 0 0-1.385 1.6l1.8.87Zm.678-.796c.262-.171.584-.272 1.004-.272v-2c-.762 0-1.474.19-2.098.598l1.094 1.674Zm1.004-.272c.335 0 .604.062.826.164l.838-1.816a3.933 3.933 0 0 0-1.664-.348v2Zm.826.164c.23.106.401.245.533.417l1.586-1.218a3.382 3.382 0 0 0-1.281-1.015l-.838 1.816Zm.533.417c.123.16.207.353.242.602l1.98-.275a3.232 3.232 0 0 0-.636-1.545L59.058 9.95Zm1.232-.535h-1.006v2h1.006v-2Zm-.037.75a2.557 2.557 0 0 0-.823-1.297l-1.314 1.508c.134.116.18.212.2.288l1.937-.498Zm-.815-1.29c-.489-.435-1.1-.602-1.722-.602v2c.265 0 .358.066.392.096l1.33-1.493Zm-1.722-.602c-.576 0-1.122.153-1.6.484l1.138 1.645a.77.77 0 0 1 .462-.13v-2Zm-1.599.483c-.463.32-.802.76-1.031 1.273l1.826.815c.1-.226.22-.357.34-.441l-1.135-1.647Zm-1.033 1.276c-.23.52-.328 1.093-.328 1.695h2c0-.386.063-.674.158-.887l-1.83-.808Zm-.328 1.695c0 .609.096 1.187.318 1.712l1.841-.781c-.095-.226-.159-.528-.159-.93h-2Zm.32 1.718c.225.52.56.965 1.022 1.293l1.157-1.632a1.03 1.03 0 0 1-.342-.454l-1.836.793Zm1.026 1.295c.48.338 1.033.493 1.614.493v-2a.769.769 0 0 1-.465-.13l-1.149 1.637Zm1.614.493c.38 0 .752-.066 1.104-.217l-.785-1.84a.802.802 0 0 1-.319.057v2Zm1.104-.217c.35-.148.655-.368.905-.656l-1.512-1.31a.47.47 0 0 1-.178.127l.785 1.84Zm.905-.656a2.5 2.5 0 0 0 .527-1.016l-1.935-.506a.507.507 0 0 1-.104.212l1.512 1.31Zm-.44-.27h1.005v-2h-1.006v2Zm.016-1.145a1.33 1.33 0 0 1-.242.603l1.619 1.174a3.33 3.33 0 0 0 .602-1.486l-1.98-.29Zm-.243.604a1.36 1.36 0 0 1-.516.423l.889 1.792c.5-.248.924-.595 1.248-1.044l-1.621-1.17Zm-.513.422c-.203.1-.47.165-.829.165v2c.607 0 1.187-.113 1.712-.37l-.883-1.795ZM62.766 15v1h1v-1h-1Zm-1.006 0h-1v1h1v-1Zm0-8.727v-1h-1v1h1Zm1.006 0h1v-1h-1v1Zm0 3.204h-1v1h1v-1Zm.085 0v1h.645l.266-.587-.91-.413Zm.69-.805.544.839.002-.001-.546-.838Zm2.408-.034-.47.882.005.003.465-.885Zm.78.814-.893.45.004.008.889-.458ZM67.01 15v1h1v-1h-1Zm-1.005 0h-1v1h1v-1ZM65.6 9.703l-.732.681.007.008.725-.689Zm-2-.221-.47-.883-.004.002.474.88Zm-.613.609-.871-.491-.005.007.876.484Zm-1.222.972V15h2v-3.938h-2Zm1 2.937H61.76v2h1.006v-2Zm-.006 1V6.273h-2V15h2Zm-1-7.727h1.006v-2H61.76v2Zm.006-1v3.204h2V6.273h-2Zm1 4.204h.085v-2h-.085v2Zm.996-.587a.852.852 0 0 1 .323-.379l-1.087-1.678a2.85 2.85 0 0 0-1.057 1.231l1.82.826Zm.325-.38c.096-.062.297-.14.69-.14v-2c-.635 0-1.257.123-1.781.464l1.091 1.676Zm.69-.14c.31 0 .534.06.701.15l.942-1.764c-.503-.27-1.06-.387-1.643-.387v2Zm.707.153a.809.809 0 0 1 .352.379l1.786-.9a2.805 2.805 0 0 0-1.208-1.25l-.93 1.771Zm.356.387c.093.179.17.471.17.93h2c0-.664-.11-1.298-.392-1.847l-1.778.917Zm.17.93V15h2v-4.16h-2Zm1 3.16h-1.005v2h1.005v-2Zm-.005 1v-4.09h-2V15h2Zm0-4.09c0-.691-.182-1.371-.68-1.896l-1.45 1.378c.042.044.13.168.13.517h2Zm-.673-1.888c-.495-.532-1.155-.75-1.844-.75v2c.26 0 .341.07.38.112l1.464-1.362Zm-1.844-.75c-.475 0-.935.102-1.357.327l.94 1.765a.86.86 0 0 1 .417-.091v-2Zm-1.36.33a2.525 2.525 0 0 0-1.011.998l1.742.982a.528.528 0 0 1 .216-.22l-.948-1.76Zm-1.016 1.005c-.247.447-.346.947-.346 1.456h2c0-.253.049-.402.097-.488l-1.75-.968ZM17.778 4.444H2.222a1.111 1.111 0 0 0-1.11 1.112v8.888a1.111 1.111 0 0 0 1.11 1.112h15.556a1.11 1.11 0 0 0 1.11-1.111v-8.89a1.111 1.111 0 0 0-1.11-1.11Zm0 10H2.222V5.556h15.556v8.889Z" fill="#000"/><path d="M3.889 7.222H5v1.111H3.889v-1.11Zm2.222 0h1.111v1.111h-1.11v-1.11Zm2.222 0h1.111v1.111h-1.11v-1.11Zm2.223 0h1.11v1.111h-1.11v-1.11Zm2.222 0h1.11v1.111h-1.11v-1.11Zm2.222 0h1.111v1.111H15v-1.11ZM3.889 9.444H5v1.112H3.889V9.444Zm2.222 0h1.111v1.112h-1.11V9.444Zm2.222 0h1.111v1.112h-1.11V9.444Zm2.223 0h1.11v1.112h-1.11V9.444Zm4.444 0h1.111v1.112H15V9.444Zm0 2.778h1.078v1.111H15v-1.11Zm-11.111 0H5v1.111H3.889v-1.11Zm2.294 0h7.64v1.111h-7.64v-1.11Zm6.595-2.778h1.11v1.112h-1.11V9.444Z" fill="#000"/></svg>