<svg width="1920" height="1080" fill="none" xmlns="http://www.w3.org/2000/svg"><mask id="Mask Group__a" style="mask-type:alpha" maskUnits="userSpaceOnUse" x="0" y="0" width="1920" height="1080"><path fill="#fff" d="M0 0h1920v1080H0z"/></mask><g mask="url(#Mask Group__a)"><path d="M984.501-95.5C984.501 157 474.8 877.9-198 843.5-870.8 809.1-644.332 60.167-466.499-369 45.834-409.167 1091.7-489.5 1176.5-489.5c37.64 0 147.26 1.198 274.3 3.392C1770.86-720.337 2161.16-941 2469-941c615 0 716 250 1071.5 475.5S3137 260 3113 279.5c-19.2 15.6-693.33 637.5-1028 946.5l-2167 81.5c-296.333-107.17-585.099-443.4-39.499-363C424.101 1024.9 1212.5 497 1497.5-70.5L3017-273c-333.17-59.333-1005.3-180.9-1028.5-192.5-18.7-9.352-306.94-16.623-537.7-20.608C1259.32-345.98 1092.99-200.995 984.501-95.5Z" fill="#09F"/></g></svg>